<svg width="187" height="40" viewBox="0 0 187 40" fill="none" xmlns="http://www.w3.org/2000/svg">
<path d="M80.924 26.104V29.452C80.924 31.492 80.42 33.064 79.412 34.168C78.428 35.248 76.964 35.788 75.02 35.788C73.076 35.788 71.6 35.248 70.592 34.168C69.608 33.064 69.116 31.492 69.116 29.452V16.348C69.116 14.308 69.608 12.748 70.592 11.668C71.6 10.564 73.076 10.012 75.02 10.012C76.964 10.012 78.428 10.564 79.412 11.668C80.42 12.748 80.924 14.308 80.924 16.348V18.796H77.18V16.096C77.18 15.184 76.988 14.548 76.604 14.188C76.244 13.804 75.752 13.612 75.128 13.612C74.504 13.612 74 13.804 73.616 14.188C73.256 14.548 73.076 15.184 73.076 16.096V29.704C73.076 30.616 73.256 31.252 73.616 31.612C74 31.972 74.504 32.152 75.128 32.152C75.752 32.152 76.244 31.972 76.604 31.612C76.988 31.252 77.18 30.616 77.18 29.704V26.104H80.924ZM87.0347 27.148L82.0307 10.3H86.1707L89.1947 21.784L92.2187 10.3H95.9987L90.9947 27.148V35.5H87.0347V27.148ZM103.576 10.3C105.64 10.3 107.128 10.78 108.04 11.74C108.976 12.7 109.444 14.152 109.444 16.096V16.996C109.444 18.292 109.24 19.36 108.832 20.2C108.424 21.04 107.776 21.664 106.888 22.072C107.968 22.48 108.724 23.152 109.156 24.088C109.612 25 109.84 26.128 109.84 27.472V29.524C109.84 31.468 109.336 32.956 108.328 33.988C107.32 34.996 105.82 35.5 103.828 35.5H97.6002V10.3H103.576ZM101.56 24.16V31.9H103.828C104.5 31.9 105.004 31.72 105.34 31.36C105.7 31 105.88 30.352 105.88 29.416V27.22C105.88 26.044 105.676 25.24 105.268 24.808C104.884 24.376 104.236 24.16 103.324 24.16H101.56ZM101.56 13.9V20.56H103.108C103.852 20.56 104.428 20.368 104.836 19.984C105.268 19.6 105.484 18.904 105.484 17.896V16.492C105.484 15.58 105.316 14.92 104.98 14.512C104.668 14.104 104.164 13.9 103.468 13.9H101.56ZM116.185 20.92H121.621V24.52H116.185V31.9H123.025V35.5H112.225V10.3H123.025V13.9H116.185V20.92ZM133.759 35.5C133.711 35.332 133.663 35.176 133.615 35.032C133.567 34.888 133.519 34.708 133.471 34.492C133.447 34.276 133.423 34 133.399 33.664C133.399 33.328 133.399 32.908 133.399 32.404V28.444C133.399 27.268 133.195 26.44 132.787 25.96C132.379 25.48 131.719 25.24 130.807 25.24H129.439V35.5H125.479V10.3H131.455C133.519 10.3 135.007 10.78 135.919 11.74C136.855 12.7 137.323 14.152 137.323 16.096V18.076C137.323 20.668 136.459 22.372 134.731 23.188C135.739 23.596 136.423 24.268 136.783 25.204C137.167 26.116 137.359 27.232 137.359 28.552V32.44C137.359 33.064 137.383 33.616 137.431 34.096C137.479 34.552 137.599 35.02 137.791 35.5H133.759ZM129.439 13.9V21.64H130.987C131.731 21.64 132.307 21.448 132.715 21.064C133.147 20.68 133.363 19.984 133.363 18.976V16.492C133.363 15.58 133.195 14.92 132.859 14.512C132.547 14.104 132.043 13.9 131.347 13.9H129.439ZM143.923 35.5H139.963V10.3H143.923V21.1H148.423V10.3H152.455V35.5H148.423V24.7H143.923V35.5ZM159.107 10.3V29.74C159.107 30.652 159.287 31.288 159.647 31.648C160.031 32.008 160.535 32.188 161.159 32.188C161.783 32.188 162.275 32.008 162.635 31.648C163.019 31.288 163.211 30.652 163.211 29.74V10.3H166.955V29.488C166.955 31.528 166.451 33.1 165.443 34.204C164.459 35.284 162.995 35.824 161.051 35.824C159.107 35.824 157.631 35.284 156.623 34.204C155.639 33.1 155.147 31.528 155.147 29.488V10.3H159.107ZM175.646 10.3C177.71 10.3 179.198 10.78 180.11 11.74C181.046 12.7 181.514 14.152 181.514 16.096V16.996C181.514 18.292 181.31 19.36 180.902 20.2C180.494 21.04 179.846 21.664 178.958 22.072C180.038 22.48 180.794 23.152 181.226 24.088C181.682 25 181.91 26.128 181.91 27.472V29.524C181.91 31.468 181.406 32.956 180.398 33.988C179.39 34.996 177.89 35.5 175.898 35.5H169.67V10.3H175.646ZM173.63 24.16V31.9H175.898C176.57 31.9 177.074 31.72 177.41 31.36C177.77 31 177.95 30.352 177.95 29.416V27.22C177.95 26.044 177.746 25.24 177.338 24.808C176.954 24.376 176.306 24.16 175.394 24.16H173.63ZM173.63 13.9V20.56H175.178C175.922 20.56 176.498 20.368 176.906 19.984C177.338 19.6 177.554 18.904 177.554 17.896V16.492C177.554 15.58 177.386 14.92 177.05 14.512C176.738 14.104 176.234 13.9 175.538 13.9H173.63Z" fill="white"/>
<path d="M57.9103 29.0594C57.9239 31.4721 57.7959 33.5853 56.7992 35.5568C55.7944 37.5447 54.1823 38.7783 52.0937 39.3992C50.792 39.7858 49.7899 38.988 48.913 38.2364C46.8843 36.4936 44.8528 34.7399 42.9929 32.8228C40.6429 30.3992 38.0368 29.2527 34.5376 29.4815C29.8838 29.7865 25.1972 29.5768 20.5243 29.5414C19.4678 29.5332 18.5964 29.8301 17.7604 30.4591C14.8902 32.6267 12.5074 35.3308 9.75707 37.6264C6.67176 40.2025 3.4394 39.5843 1.38888 36.0497C-0.122462 33.4382 -0.14697 30.5844 0.147128 27.7142C0.768003 21.6824 2.94107 16.1055 5.34287 10.6102C6.06722 8.94905 6.94407 7.35602 7.67387 5.69763C8.26207 4.36057 9.28597 3.54635 10.5495 2.94726C12.6082 1.97238 14.7813 1.34606 16.9788 0.776922C18.9204 0.273142 20.6714 0.610811 22.2454 1.81988C22.8227 2.26375 23.4163 2.4108 24.1271 2.40263C26.4853 2.37268 28.8462 2.38357 31.2045 2.39446C33.2278 2.40263 35.2347 2.58508 36.9884 1.1037C37.8707 0.357559 39.1234 0.425638 40.2671 0.659827C42.6716 1.15544 45.0108 1.85256 47.2465 2.88191C48.608 3.50823 49.6129 4.41503 50.3018 5.812C53.5015 12.2958 56.3363 18.9021 57.5808 26.083C57.7659 27.1532 57.8231 28.2452 57.9103 29.0621V29.0594ZM1.8627 29.7729C1.80279 31.4313 2.03426 33.0379 2.71777 34.5547C4.11746 37.6645 6.41579 38.1846 8.91562 35.9626C9.35677 35.5704 9.7843 35.1674 10.2227 34.7698C12.2378 32.9426 14.1304 30.9874 16.2599 29.2854C17.5779 28.2316 18.9613 27.6298 20.7259 27.6597C25.8045 27.7496 30.8913 27.8285 35.9618 27.6352C38.7775 27.529 40.9724 28.4222 42.9439 30.2903C45.1497 32.3789 47.3799 34.443 49.6673 36.4391C51.3829 37.9368 52.6029 37.8061 54.1877 36.1205C54.8467 35.4179 55.3233 34.6037 55.5929 33.6669C56.1402 31.7608 56.2138 29.8328 55.9741 27.8748C55.1926 21.4918 52.5811 15.716 50.2964 9.78778C48.6571 5.52879 45.6834 3.66889 41.6178 2.80294C41.2637 2.72669 40.9016 2.67767 40.5503 2.58781C39.0308 2.19568 37.6638 2.4925 36.4928 3.53274C35.9455 4.01745 35.3491 4.18356 34.6329 4.17812C30.8695 4.15633 27.1034 4.15361 23.3401 4.17812C22.5667 4.18356 21.9567 3.97116 21.3631 3.4701C20.4318 2.68584 19.3507 2.24197 18.0899 2.47616C15.669 2.92275 13.3434 3.64711 11.1295 4.73636C10.3235 5.13394 9.76524 5.70307 9.35133 6.51729C7.87811 9.43105 6.5002 12.3911 5.33198 15.4383C3.55922 20.0622 2.04515 24.7596 1.85726 29.7701L1.8627 29.7729Z" fill="#E51515"/>
<path d="M16.3906 8.15378C14.5389 7.44304 12.4857 7.88691 11.2167 9.24303C9.65087 10.9205 9.53378 13.728 11.2167 15.5062C12.7634 17.1401 15.3613 17.4097 17.2076 16.0509C18.9749 14.7519 19.5604 12.3229 18.5691 10.3323" stroke="#E51515" stroke-width="1.63388" stroke-miterlimit="10" stroke-linecap="round"/>
<path d="M23.4708 17.1401C21.6191 16.4294 19.5659 16.8733 18.2969 18.2294C16.7311 19.9068 16.614 22.7144 18.2969 24.4926C19.8436 26.1265 22.4415 26.3961 24.2878 25.0372C26.0551 23.7383 26.6406 21.3092 25.6493 19.3186" stroke="#E51515" stroke-width="1.63388" stroke-miterlimit="10" stroke-linecap="round"/>
<path d="M38.1757 17.1401C36.324 16.4294 34.2708 16.8733 33.0018 18.2294C31.436 19.9068 31.3189 22.7144 33.0018 24.4926C34.5485 26.1265 37.1464 26.3961 38.9927 25.0372C40.76 23.7383 41.3455 21.3092 40.3542 19.3186" stroke="#E51515" stroke-width="1.63388" stroke-miterlimit="10" stroke-linecap="round"/>
<path d="M19.9688 21.3555H23.2365" stroke="#E51515" stroke-width="1.90619" stroke-miterlimit="10" stroke-linecap="round"/>
<path d="M21.6027 19.7217V22.9894" stroke="#E51515" stroke-width="1.90619" stroke-miterlimit="10" stroke-linecap="round"/>
<path d="M28.9552 9.78221C30.008 9.78221 30.8614 8.92878 30.8614 7.87602C30.8614 6.82326 30.008 5.96983 28.9552 5.96983C27.9024 5.96983 27.049 6.82326 27.049 7.87602C27.049 8.92878 27.9024 9.78221 28.9552 9.78221Z" stroke="#E51515" stroke-width="1.90619" stroke-miterlimit="10"/>
<path d="M14.5226 14.1801C15.5227 14.1801 16.3335 13.3693 16.3335 12.3692C16.3335 11.3691 15.5227 10.5583 14.5226 10.5583C13.5225 10.5583 12.7117 11.3691 12.7117 12.3692C12.7117 13.3693 13.5225 14.1801 14.5226 14.1801Z" fill="#E51515"/>
<path d="M36.3076 23.1664C37.3077 23.1664 38.1185 22.3557 38.1185 21.3555C38.1185 20.3554 37.3077 19.5446 36.3076 19.5446C35.3075 19.5446 34.4967 20.3554 34.4967 21.3555C34.4967 22.3557 35.3075 23.1664 36.3076 23.1664Z" fill="#E51515"/>
<path d="M43.3878 10.64C44.3879 10.64 45.1987 9.82924 45.1987 8.82911C45.1987 7.82899 44.3879 7.01823 43.3878 7.01823C42.3877 7.01823 41.5769 7.82899 41.5769 8.82911C41.5769 9.82924 42.3877 10.64 43.3878 10.64Z" fill="#E51515"/>
<path d="M46.9279 14.1801C47.928 14.1801 48.7388 13.3693 48.7388 12.3692C48.7388 11.3691 47.928 10.5583 46.9279 10.5583C45.9278 10.5583 45.117 11.3691 45.117 12.3692C45.117 13.3693 45.9278 14.1801 46.9279 14.1801Z" fill="#E51515"/>
<path d="M39.8477 14.1801C40.8478 14.1801 41.6586 13.3693 41.6586 12.3692C41.6586 11.3691 40.8478 10.5583 39.8477 10.5583C38.8476 10.5583 38.0368 11.3691 38.0368 12.3692C38.0368 13.3693 38.8476 14.1801 39.8477 14.1801Z" fill="#E51515"/>
<path d="M43.3878 17.7202C44.3879 17.7202 45.1987 16.9094 45.1987 15.9093C45.1987 14.9091 44.3879 14.0984 43.3878 14.0984C42.3877 14.0984 41.5769 14.9091 41.5769 15.9093C41.5769 16.9094 42.3877 17.7202 43.3878 17.7202Z" fill="#E51515"/>
</svg>
