<svg width="180" height="40" viewBox="0 0 180 40" fill="none" xmlns="http://www.w3.org/2000/svg">
<path d="M57.9103 29.0594C57.9239 31.4721 57.7959 33.5853 56.7992 35.5568C55.7944 37.5447 54.1823 38.7783 52.0937 39.3992C50.792 39.7858 49.7899 38.988 48.913 38.2364C46.8843 36.4936 44.8528 34.7399 42.9929 32.8228C40.6429 30.3992 38.0368 29.2527 34.5376 29.4815C29.8838 29.7865 25.1972 29.5768 20.5243 29.5414C19.4678 29.5332 18.5964 29.8301 17.7604 30.4591C14.8902 32.6267 12.5074 35.3308 9.75707 37.6264C6.67176 40.2025 3.4394 39.5843 1.38888 36.0497C-0.122462 33.4382 -0.14697 30.5844 0.147128 27.7142C0.768003 21.6824 2.94107 16.1054 5.34287 10.6102C6.06722 8.94905 6.94407 7.35602 7.67387 5.69763C8.26207 4.36057 9.28597 3.54635 10.5495 2.94726C12.6082 1.97238 14.7813 1.34606 16.9788 0.77692C18.9204 0.27314 20.6714 0.610809 22.2454 1.81988C22.8227 2.26375 23.4163 2.4108 24.1271 2.40263C26.4853 2.37268 28.8462 2.38357 31.2045 2.39446C33.2278 2.40263 35.2347 2.58508 36.9884 1.1037C37.8707 0.357557 39.1234 0.425636 40.2671 0.659826C42.6716 1.15544 45.0108 1.85256 47.2465 2.8819C48.608 3.50823 49.6129 4.41503 50.3018 5.812C53.5015 12.2958 56.3363 18.9021 57.5808 26.083C57.7659 27.1532 57.8231 28.2452 57.9103 29.0621V29.0594ZM1.8627 29.7729C1.80279 31.4313 2.03426 33.0379 2.71777 34.5547C4.11746 37.6645 6.41579 38.1846 8.91562 35.9626C9.35677 35.5704 9.7843 35.1674 10.2227 34.7698C12.2378 32.9426 14.1304 30.9874 16.2599 29.2854C17.5779 28.2316 18.9613 27.6298 20.7259 27.6597C25.8045 27.7496 30.8913 27.8285 35.9618 27.6352C38.7775 27.529 40.9724 28.4222 42.9439 30.2903C45.1497 32.3789 47.3799 34.443 49.6673 36.4391C51.3829 37.9368 52.6029 37.8061 54.1877 36.1205C54.8467 35.4179 55.3233 34.6037 55.5929 33.6669C56.1402 31.7608 56.2138 29.8328 55.9741 27.8748C55.1926 21.4918 52.5811 15.716 50.2964 9.78777C48.6571 5.52879 45.6834 3.66889 41.6178 2.80293C41.2637 2.72669 40.9016 2.67767 40.5503 2.58781C39.0308 2.19567 37.6638 2.4925 36.4928 3.53273C35.9455 4.01745 35.3491 4.18356 34.6329 4.17812C30.8695 4.15633 27.1034 4.15361 23.3401 4.17812C22.5667 4.18356 21.9567 3.97116 21.3631 3.4701C20.4318 2.68584 19.3507 2.24197 18.0899 2.47616C15.669 2.92275 13.3434 3.6471 11.1295 4.73636C10.3235 5.13394 9.76524 5.70307 9.35133 6.51729C7.87811 9.43104 6.5002 12.3911 5.33198 15.4383C3.55922 20.0622 2.04515 24.7596 1.85726 29.7701L1.8627 29.7729Z" fill="#E51515"/>
<path d="M16.3907 8.15377C14.5389 7.44303 12.4857 7.88691 11.2167 9.24303C9.6509 10.9205 9.53381 13.728 11.2167 15.5062C12.7634 17.1401 15.3613 17.4097 17.2076 16.0509C18.9749 14.7519 19.5604 12.3229 18.5692 10.3323" stroke="#E51515" stroke-width="1.63388" stroke-miterlimit="10" stroke-linecap="round"/>
<path d="M23.4709 17.1401C21.6191 16.4294 19.5659 16.8733 18.2969 18.2294C16.7311 19.9068 16.614 22.7144 18.2969 24.4926C19.8436 26.1265 22.4415 26.3961 24.2878 25.0372C26.0551 23.7383 26.6406 21.3092 25.6494 19.3186" stroke="#E51515" stroke-width="1.63388" stroke-miterlimit="10" stroke-linecap="round"/>
<path d="M38.1757 17.1401C36.324 16.4294 34.2707 16.8733 33.0017 18.2294C31.4359 19.9068 31.3188 22.7144 33.0017 24.4926C34.5485 26.1265 37.1464 26.3961 38.9926 25.0372C40.76 23.7383 41.3454 21.3092 40.3542 19.3186" stroke="#E51515" stroke-width="1.63388" stroke-miterlimit="10" stroke-linecap="round"/>
<path d="M19.9689 21.3555H23.2366" stroke="#E51515" stroke-width="1.90619" stroke-miterlimit="10" stroke-linecap="round"/>
<path d="M21.6028 19.7217V22.9894" stroke="#E51515" stroke-width="1.90619" stroke-miterlimit="10" stroke-linecap="round"/>
<path d="M28.9553 9.78221C30.008 9.78221 30.8615 8.92878 30.8615 7.87602C30.8615 6.82325 30.008 5.96982 28.9553 5.96982C27.9025 5.96982 27.0491 6.82325 27.0491 7.87602C27.0491 8.92878 27.9025 9.78221 28.9553 9.78221Z" stroke="#E51515" stroke-width="1.90619" stroke-miterlimit="10"/>
<path d="M14.5226 14.1801C15.5227 14.1801 16.3334 13.3693 16.3334 12.3692C16.3334 11.3691 15.5227 10.5583 14.5226 10.5583C13.5224 10.5583 12.7117 11.3691 12.7117 12.3692C12.7117 13.3693 13.5224 14.1801 14.5226 14.1801Z" fill="#E51515"/>
<path d="M36.3076 23.1664C37.3077 23.1664 38.1185 22.3557 38.1185 21.3555C38.1185 20.3554 37.3077 19.5446 36.3076 19.5446C35.3075 19.5446 34.4967 20.3554 34.4967 21.3555C34.4967 22.3557 35.3075 23.1664 36.3076 23.1664Z" fill="#E51515"/>
<path d="M43.3878 10.64C44.3879 10.64 45.1987 9.82924 45.1987 8.82911C45.1987 7.82899 44.3879 7.01823 43.3878 7.01823C42.3877 7.01823 41.5769 7.82899 41.5769 8.82911C41.5769 9.82924 42.3877 10.64 43.3878 10.64Z" fill="#E51515"/>
<path d="M46.9278 14.1801C47.928 14.1801 48.7387 13.3693 48.7387 12.3692C48.7387 11.3691 47.928 10.5583 46.9278 10.5583C45.9277 10.5583 45.1169 11.3691 45.1169 12.3692C45.1169 13.3693 45.9277 14.1801 46.9278 14.1801Z" fill="#E51515"/>
<path d="M39.8478 14.1801C40.8479 14.1801 41.6586 13.3693 41.6586 12.3692C41.6586 11.3691 40.8479 10.5583 39.8478 10.5583C38.8476 10.5583 38.0369 11.3691 38.0369 12.3692C38.0369 13.3693 38.8476 14.1801 39.8478 14.1801Z" fill="#E51515"/>
<path d="M43.3878 17.7201C44.3879 17.7201 45.1987 16.9094 45.1987 15.9093C45.1987 14.9091 44.3879 14.0984 43.3878 14.0984C42.3877 14.0984 41.5769 14.9091 41.5769 15.9093C41.5769 16.9094 42.3877 17.7201 43.3878 17.7201Z" fill="#E51515"/>
<path d="M167.172 6.84786H170.999V17.1099L175.869 6.84786H179.695L175.138 15.788L179.765 31.1984H175.764L172.529 20.345L170.999 23.441V31.1984H167.172V6.84786Z" fill="white"/>
<path d="M152.327 6.84786H157.127L160.849 21.4234H160.919V6.84786H164.328V31.1984H160.397L155.805 13.4225H155.736V31.1984H152.327V6.84786Z" fill="white"/>
<path d="M145.634 6.84786H149.461V31.1984H145.634V6.84786Z" fill="white"/>
<path d="M133.676 6.84786H137.503V27.7198H143.799V31.1984H133.676V6.84786Z" fill="white"/>
<path d="M119.646 6.84786H125.316C127.288 6.84786 128.726 7.31168 129.63 8.23932C130.534 9.14377 130.987 10.5468 130.987 12.4485V13.9443C130.987 16.4721 130.152 18.0723 128.482 18.7449V18.8144C129.41 19.0927 130.059 19.6609 130.43 20.519C130.824 21.377 131.021 22.525 131.021 23.9628V28.2416C131.021 28.9373 131.045 29.5055 131.091 29.9461C131.137 30.3636 131.253 30.781 131.439 31.1984H127.543C127.404 30.8042 127.311 30.4331 127.264 30.0853C127.218 29.7374 127.195 29.1112 127.195 28.2068V23.7541C127.195 22.6409 127.009 21.864 126.638 21.4234C126.29 20.9828 125.676 20.7625 124.795 20.7625H123.473V31.1984H119.646V6.84786ZM124.864 17.2838C125.63 17.2838 126.198 17.0867 126.569 16.6924C126.963 16.2982 127.16 15.6373 127.16 14.7096V12.8311C127.16 11.9499 126.998 11.3121 126.673 10.9179C126.372 10.5236 125.885 10.3265 125.212 10.3265H123.473V17.2838H124.864Z" fill="white"/>
<path d="M107.009 6.84786H117.445V10.3265H110.835V16.762H116.088V20.2407H110.835V27.7198H117.445V31.1984H107.009V6.84786Z" fill="white"/>
<path d="M92.9448 6.84786H98.7194C100.691 6.84786 102.128 7.31168 103.033 8.23932C103.937 9.14377 104.39 10.5468 104.39 12.4485V13.4225C104.39 14.6748 104.181 15.6952 103.763 16.4837C103.369 17.2722 102.755 17.8404 101.92 18.1883V18.2578C103.821 18.9072 104.772 20.6001 104.772 23.3367V25.4239C104.772 27.3023 104.274 28.7402 103.276 29.7374C102.302 30.7114 100.865 31.1984 98.9629 31.1984H92.9448V6.84786ZM98.2672 16.762C99.0325 16.762 99.6006 16.5649 99.9717 16.1707C100.366 15.7764 100.563 15.1155 100.563 14.1878V12.8311C100.563 11.9499 100.401 11.3121 100.076 10.9179C99.7746 10.5236 99.2876 10.3265 98.615 10.3265H96.7713V16.762H98.2672ZM98.9629 27.7198C99.6354 27.7198 100.134 27.5458 100.459 27.198C100.783 26.8269 100.946 26.2008 100.946 25.3195V23.1975C100.946 22.0844 100.749 21.3191 100.354 20.9016C99.9833 20.461 99.3571 20.2407 98.4759 20.2407H96.7713V27.7198H98.9629Z" fill="white"/>
<path d="M82.768 20.832L78.1414 6.84786H82.2114L84.8204 15.788H84.8899L87.4989 6.84786H91.2211L86.5945 20.832V31.1984H82.768V20.832Z" fill="white"/>
<path d="M71.6354 31.5463C69.8033 31.5463 68.4003 31.0245 67.4262 29.9809C66.4754 28.9373 66 27.4647 66 25.563V12.4833C66 10.5816 66.4754 9.10899 67.4262 8.06539C68.4003 7.0218 69.8033 6.5 71.6354 6.5C73.4675 6.5 74.859 7.0218 75.8098 8.06539C76.7838 9.10899 77.2708 10.5816 77.2708 12.4833V15.0575H73.653V12.2398C73.653 10.7324 73.0153 9.97865 71.7398 9.97865C70.4643 9.97865 69.8265 10.7324 69.8265 12.2398V25.8413C69.8265 27.3255 70.4643 28.0676 71.7398 28.0676C73.0153 28.0676 73.653 27.3255 73.653 25.8413V22.1191H77.2708V25.563C77.2708 27.4647 76.7838 28.9373 75.8098 29.9809C74.859 31.0245 73.4675 31.5463 71.6354 31.5463Z" fill="white"/>
</svg>
