<svg width="25" height="20" viewBox="0 0 25 20" fill="none" xmlns="http://www.w3.org/2000/svg">
<path d="M25.0002 16.3332C25.0002 16.8886 24.8486 17.4035 24.6056 17.8564L16.8409 8.90696L24.5215 1.98462C24.8202 2.47305 25.0002 3.0468 25.0002 3.66681V16.3332ZM12.7042 10.5319L23.3914 0.898996C22.9529 0.651673 22.459 0.5 21.9263 0.5H3.48218C2.9488 0.5 2.45479 0.651673 2.018 0.898996L12.7042 10.5319ZM15.6837 9.94915L13.2099 12.1803C13.0652 12.3102 12.8851 12.375 12.7042 12.375C12.5233 12.375 12.3431 12.3102 12.1984 12.1803L9.72406 9.94904L1.86114 19.0129C2.33244 19.3175 2.88478 19.5 3.48213 19.5H21.9263C22.5235 19.5 23.0761 19.3175 23.5473 19.0129L15.6837 9.94915ZM0.887057 1.98457C0.588331 2.473 0.408203 3.04675 0.408203 3.66681V16.3333C0.408203 16.8887 0.559137 17.4035 0.802974 17.8565L8.56676 8.90545L0.887057 1.98457Z" fill="white"/>
</svg>
