<svg width="32" height="32" viewBox="0 0 29 29" xmlns="http://www.w3.org/2000/svg">
<path d="M12.1185 6.00809L7.32591 0.476009C6.77341 -0.161491 5.7605 -0.158657 5.11875 0.484509L1.17758 4.43276C0.00457926 5.60718 -0.331171 7.35109 0.347412 8.74934C4.40137 17.143 11.1708 23.922 19.5588 27.9877C20.9557 28.6663 22.6982 28.3305 23.8712 27.1561L27.8492 23.171C28.4937 22.5264 28.4952 21.5078 27.852 20.9553L22.2987 16.1883C21.7178 15.6896 20.8154 15.7548 20.2332 16.3384L18.3008 18.2736C18.2019 18.3773 18.0717 18.4456 17.9302 18.4681C17.7886 18.4907 17.6436 18.4661 17.5174 18.3983C14.3589 16.5794 11.7388 13.9559 9.92408 10.795C9.85612 10.6686 9.83151 10.5233 9.85403 10.3816C9.87655 10.2398 9.94495 10.1093 10.0487 10.0102L11.9754 8.08209C12.5591 7.49559 12.6228 6.59034 12.1185 6.00809Z" fill="white"/>
</svg>
