<svg width="23" height="30" viewBox="0 0 23 30" fill="none" xmlns="http://www.w3.org/2000/svg">
<g clip-path="url(#clip0_2003_18)">
<path fill-rule="evenodd" clip-rule="evenodd" d="M22.795 14.306C22.6247 15.2313 22.3402 16.1318 21.948 16.987C20.709 19.936 17.98 24.465 12.011 29.317C11.8663 29.4337 11.6859 29.4974 11.5 29.4974C11.3141 29.4974 11.1337 29.4337 10.989 29.317C5.013 24.465 2.29 19.936 1.052 16.987C0.661123 16.1313 0.376344 15.2309 0.204 14.306C0.0671921 13.5868 -0.00111351 12.8562 4.61005e-08 12.124C4.61005e-08 5.71602 5.158 0.499023 11.494 0.499023C17.83 0.499023 22.988 5.71602 23 12.124C23 12.853 22.928 13.589 22.795 14.306ZM11.494 2.13402C6.053 2.13402 1.623 6.61502 1.623 12.117C1.623 12.756 1.683 13.388 1.803 14.014C1.803 14.032 1.809 14.044 1.809 14.057C1.815 14.087 1.827 14.178 1.863 14.318V14.33C2.02 15.011 2.242 15.68 2.531 16.312C2.537 16.318 2.537 16.33 2.543 16.337C3.667 19.03 6.132 23.14 11.494 27.621C16.856 23.14 19.321 19.03 20.445 16.337C20.451 16.33 20.451 16.318 20.457 16.312C20.7503 15.6774 20.9739 15.0129 21.124 14.33V14.318C21.154 14.178 21.172 14.087 21.178 14.057C21.178 14.044 21.184 14.032 21.184 14.021C21.3053 13.3936 21.3659 12.756 21.365 12.117C21.365 6.61502 16.934 2.13402 11.494 2.13402ZM11.494 19.632C7.472 19.632 4.196 16.318 4.196 12.251C4.196 8.18402 7.472 4.87102 11.494 4.87102C15.516 4.87102 18.792 8.18402 18.792 12.251C18.792 16.318 15.516 19.632 11.494 19.632ZM11.494 6.51202C8.368 6.51202 5.819 9.09002 5.819 12.251C5.819 15.412 8.362 17.991 11.494 17.991C14.626 17.991 17.169 15.412 17.169 12.251C17.169 9.09002 14.62 6.51202 11.494 6.51202Z" fill="#8E0608"/>
<path fill-rule="evenodd" clip-rule="evenodd" d="M6.5 2.5L2 7L0.5 11.5L1.5 17L5.5 22.5L11 28.5L16 24L21.5 17.5L22 11.5L21 7.5L18 3.5L13 1.5L8.5 2L6.5 2.5ZM11.5 19C15.0899 19 18 16.0899 18 12.5C18 8.91015 15.0899 6 11.5 6C7.91015 6 5 8.91015 5 12.5C5 16.0899 7.91015 19 11.5 19Z" fill="#8E0608"/>
</g>
<defs>
<clipPath id="clip0_2003_18">
<rect width="23" height="29" fill="white" transform="translate(0 0.5)"/>
</clipPath>
</defs>
</svg>
