<svg width="33" height="20" viewBox="0 0 33 20" fill="none" xmlns="http://www.w3.org/2000/svg">
<path d="M31.6399 1.78844C31.8593 1.04625 31.6399 0.5 30.584 0.5H27.09C26.2002 0.5 25.7909 0.969062 25.5714 1.49156C25.5714 1.49156 23.7918 5.83187 21.2766 8.64625C20.4639 9.45969 20.0902 9.72094 19.6453 9.72094C19.4258 9.72094 19.0877 9.45969 19.0877 8.7175V1.78844C19.0877 0.897812 18.8385 0.5 18.1029 0.5H12.6099C12.0522 0.5 11.7201 0.915625 11.7201 1.30156C11.7201 2.14469 12.9776 2.34062 13.1081 4.71562V9.86938C13.1081 10.9975 12.9065 11.2053 12.4616 11.2053C11.2751 11.2053 8.39217 6.84719 6.68375 1.85969C6.33969 0.891875 6.00156 0.5 5.10582 0.5H1.61185C0.615264 0.5 0.413574 0.969062 0.413574 1.49156C0.413574 2.41781 1.59998 7.01938 5.93631 13.0994C8.82521 17.2497 12.8946 19.5 16.5962 19.5C18.8207 19.5 19.0936 19.0012 19.0936 18.1403C19.0936 14.1741 18.8919 13.8 20.0071 13.8C20.5232 13.8 21.413 14.0612 23.4892 16.0622C25.862 18.4372 26.2536 19.5 27.5823 19.5H31.0763C32.0729 19.5 32.5771 19.0012 32.2865 18.0156C31.6221 15.9434 27.1315 11.6803 26.9298 11.3953C26.4137 10.7303 26.562 10.4334 26.9298 9.83969C26.9357 9.83375 31.2009 3.825 31.6399 1.78844Z" fill="white"/>
</svg>
