<svg width="32" height="32" viewBox="0 0 32 32" fill="none" xmlns="http://www.w3.org/2000/svg">
<path d="M8.01867 10.6748C8.17103 9.46987 9.73703 7.83219 10.9798 8.01391L10.9779 8.01192C12.1873 8.24176 13.1448 10.3235 13.6847 11.2595C14.0672 11.9387 13.8188 12.6268 13.462 12.9172C12.9807 13.3051 12.228 13.8404 12.3859 14.3779C12.6667 15.3333 16 18.6667 17.6395 19.6143C18.26 19.9729 18.71 19.0269 19.0943 18.5423C19.3735 18.1695 20.0621 17.9467 20.7397 18.3147C21.7517 18.904 22.7051 19.5889 23.5867 20.36C24.0269 20.728 24.1303 21.2719 23.8252 21.8467C23.2879 22.8591 21.7337 24.1941 20.6056 23.9228C18.6352 23.4491 10.6667 20.36 8.10711 11.4107C7.96316 10.9873 7.9994 10.8273 8.01867 10.6748Z" fill="white"/>
<path fill-rule="evenodd" clip-rule="evenodd" d="M16 30.6668C14.3685 30.6668 13.4658 30.4918 12 30.0002L9.19255 31.4039C7.41947 32.2904 5.33331 31.0011 5.33331 29.0187V26.0002C2.46205 23.3228 1.33331 20.2358 1.33331 16.0002C1.33331 7.89999 7.89981 1.3335 16 1.3335C24.1001 1.3335 30.6666 7.89999 30.6666 16.0002C30.6666 24.1003 24.1001 30.6668 16 30.6668ZM7.99998 24.8406L7.15191 24.0498C4.92114 21.9698 3.99998 19.6443 3.99998 16.0002C3.99998 9.37275 9.37257 4.00016 16 4.00016C22.6274 4.00016 28 9.37275 28 16.0002C28 22.6276 22.6274 28.0002 16 28.0002C14.6857 28.0002 14.0693 27.8815 12.8479 27.4719L11.7979 27.1198L7.99998 29.0187V24.8406Z" fill="white"/>
</svg>
