<svg width="50" height="50" viewBox="0 0 50 50" fill="none" xmlns="http://www.w3.org/2000/svg">
<rect width="50" height="50" rx="10" fill="#E51515"/>
<path fill-rule="evenodd" clip-rule="evenodd" d="M41.8767 33.5459L40.491 38.7323C40.2846 39.507 39.8285 40.192 39.1934 40.6812C38.5583 41.1705 37.7797 41.4367 36.978 41.4385C36.7326 41.4385 36.4882 41.4128 36.2465 41.3632C36.1121 41.5592 35.932 41.7195 35.7218 41.8304C35.5116 41.9414 35.2777 41.9996 35.04 42C34.9114 42 34.7836 41.9835 34.6596 41.9495L31.9626 41.2253C31.7759 41.1753 31.6008 41.0888 31.4476 40.971C31.2943 40.8532 31.1657 40.7063 31.0693 40.5388C30.9728 40.3712 30.9104 40.1863 30.8855 39.9946C30.8606 39.8029 30.8738 39.6081 30.9242 39.4215L33.9355 28.151C34.0327 27.7868 34.2661 27.474 34.5875 27.277C34.9088 27.08 35.2935 27.0139 35.6621 27.0924C36.218 24.728 36.1601 22.8543 36.1409 22.4822L36.1399 22.4583C36.1381 22.4314 36.1372 22.4044 36.1372 22.3774C36.1372 19.5848 35.0905 17.033 33.3694 15.0941L33.2068 14.9149C33.1379 14.8402 33.0677 14.7666 32.9964 14.6943L32.9826 14.6805C31.0121 12.6749 28.3442 11.5061 25.5339 11.4175L25.5063 11.4165C25.4099 11.4136 25.3134 11.4121 25.2169 11.412H25.1709C25.0754 11.412 24.9789 11.4138 24.8833 11.4165L24.8548 11.4175C23.418 11.4627 22.0042 11.7912 20.6946 12.3841C19.385 12.9771 18.2053 13.8227 17.2233 14.8726L17.1691 14.9305L17.0322 15.0812C15.2396 17.0885 14.25 19.6862 14.2525 22.3774L14.2506 22.4564L14.2497 22.484C14.2304 22.8497 14.1725 24.7115 14.7211 27.0621C15.0315 27.0781 15.3289 27.1922 15.5704 27.3878C15.812 27.5835 15.9853 27.8507 16.0655 28.151L18.3701 36.7796C18.3884 36.8477 18.3932 36.9188 18.3841 36.9888C18.3749 37.0587 18.3521 37.1262 18.3169 37.1873C18.2817 37.2485 18.2348 37.3021 18.1789 37.3451C18.123 37.3881 18.0592 37.4197 17.9911 37.438C17.9229 37.4564 17.8519 37.4611 17.7819 37.452C17.712 37.4429 17.6445 37.4201 17.5834 37.3849C17.5222 37.3497 17.4686 37.3028 17.4256 37.2469C17.3826 37.1909 17.351 37.1271 17.3327 37.059L15.0271 28.4294C14.9998 28.3287 14.9337 28.2429 14.8433 28.1907C14.7529 28.1386 14.6456 28.1243 14.5447 28.151L14.4537 28.1758L13.6561 28.3899L11.8486 28.8751C11.7986 28.8884 11.7518 28.9115 11.7108 28.9431C11.6698 28.9746 11.6354 29.014 11.6097 29.0589C11.5835 29.1036 11.5664 29.1532 11.5596 29.2047C11.5529 29.2561 11.5564 29.3084 11.5702 29.3584L11.5803 29.3952L14.5713 40.5922V40.5941L14.5805 40.6299C14.6077 40.7308 14.6737 40.8168 14.7641 40.8691C14.8545 40.9215 14.9619 40.9359 15.063 40.9092L17.759 40.1842C17.8599 40.1565 17.9457 40.09 17.9978 39.9993C18.05 39.9087 18.0642 39.8011 18.0375 39.6999L17.7857 38.7581C17.7489 38.6201 17.7683 38.4732 17.8396 38.3496C17.9109 38.2259 18.0283 38.1355 18.1661 38.0983C18.2343 38.0798 18.3054 38.075 18.3755 38.0842C18.4455 38.0933 18.5131 38.1163 18.5742 38.1516C18.6354 38.187 18.6889 38.2341 18.7318 38.2902C18.7747 38.3463 18.806 38.4104 18.824 38.4787L19.0758 39.4215C19.1762 39.7984 19.1234 40.1997 18.9288 40.5377C18.7342 40.8757 18.4138 41.1229 18.0375 41.2253L15.3414 41.9495C15.0484 42.0271 14.7386 42.0124 14.4543 41.9075C14.17 41.8026 13.9249 41.6125 13.7526 41.3632C12.8812 41.5432 11.9739 41.3957 11.2045 40.9488C10.7895 40.7094 10.426 40.3902 10.1351 40.0096C9.84407 39.629 9.63132 39.1946 9.50908 38.7314L8.12337 33.545C7.88417 32.6475 7.9954 31.6926 8.4345 30.8742C8.8736 30.0557 9.60767 29.4349 10.4877 29.1379C10.5087 28.8634 10.6066 28.6003 10.7703 28.3789C10.9339 28.1575 11.1567 27.9868 11.4131 27.8863C10.7781 25.193 10.8194 22.9912 10.8507 22.3333C10.859 18.8085 12.1648 15.4101 14.519 12.7867C14.5307 12.7709 14.543 12.7556 14.5557 12.7407C15.0282 12.2186 15.538 11.7315 16.0811 11.2833L16.094 11.2723C16.1684 11.2116 16.2428 11.151 16.3182 11.0922L16.399 11.0278L16.57 10.8964L16.7271 10.7797L16.8328 10.7025C16.9182 10.641 17.0037 10.5812 17.0901 10.5215L17.1048 10.5114C19.4802 8.87314 22.2982 7.99714 25.1838 8.00001H25.2049C25.3189 8.00001 25.4328 8.00184 25.5459 8.0046L25.6175 8.00644C28.872 8.09834 31.9967 9.30252 34.4712 11.4184L34.4905 11.4349C34.7588 11.6647 35.0179 11.9027 35.2688 12.1498L35.3184 12.1995C35.3855 12.2656 35.4508 12.3336 35.516 12.4016L35.618 12.5091C35.6796 12.5744 35.7411 12.6396 35.8009 12.7058L35.8339 12.7407L35.8459 12.7563C36.6637 13.6651 37.3667 14.6769 37.9336 15.7704C37.9663 15.833 37.9863 15.9015 37.9925 15.9718C37.9986 16.0422 37.9909 16.1131 37.9697 16.1804C37.9485 16.2478 37.9142 16.3103 37.8689 16.3644C37.8235 16.4186 37.7679 16.4632 37.7053 16.4959C37.6427 16.5285 37.5742 16.5485 37.5039 16.5547C37.4335 16.5609 37.3626 16.5532 37.2953 16.5319C37.2279 16.5107 37.1654 16.4765 37.1112 16.4311C37.0571 16.3857 37.0125 16.3301 36.9798 16.2675C36.5424 15.4217 36.0163 14.6248 35.4103 13.8903L34.5181 14.7853C36.2628 16.9306 37.2141 19.6122 37.2114 22.3774L37.2123 22.4059L37.2132 22.4279C37.2344 22.8277 37.2978 24.8465 36.7014 27.3699L37.9171 27.6961C38.5374 25.0992 38.4951 22.9885 38.4648 22.3747L38.4639 22.3489C38.4621 20.7866 38.1847 19.2368 37.6442 17.7709C37.5946 17.6372 37.6001 17.4893 37.6596 17.3597C37.719 17.2301 37.8275 17.1294 37.9612 17.0798C38.0949 17.0302 38.2428 17.0358 38.3724 17.0952C38.502 17.1547 38.6026 17.2632 38.6522 17.3969C39.2357 18.9765 39.5335 20.6379 39.5381 22.3333C39.5711 23.0115 39.6125 25.2987 38.9297 28.0802C39.2642 28.332 39.4774 28.7179 39.5114 29.1379C40.3917 29.4349 41.126 30.0558 41.5653 30.8744C42.0045 31.6931 42.1159 32.6482 41.8767 33.5459ZM10.6853 30.213C10.1027 30.4488 9.6264 30.8892 9.34582 31.4516C9.06525 32.0139 8.99979 32.6594 9.16173 33.2666L10.5465 38.453C10.6327 38.7794 10.7828 39.0856 10.9879 39.3537C11.1931 39.6218 11.4494 39.8466 11.742 40.0151C12.2391 40.3046 12.8196 40.4167 13.3887 40.3331L10.6853 30.213ZM11.9258 22.3489L11.9249 22.3747C11.8955 22.9756 11.8523 25.0441 12.4487 27.5978L13.1875 27.3993L13.6653 27.2707C13.0937 24.7951 13.1562 22.8194 13.1755 22.427L13.1774 22.4022V22.3774C13.1774 19.5021 14.1882 16.8593 15.8716 14.7853L14.983 13.894C13.0107 16.2704 11.9295 19.2606 11.9258 22.3489ZM34.6871 13.0917C32.4531 10.7978 29.4655 9.38832 26.2745 9.12293L26.2001 9.11649L26.0071 9.10363C25.9263 9.09903 25.8454 9.09444 25.7636 9.09168L25.6157 9.08525C25.4806 9.08157 25.3455 9.0779 25.2105 9.0779H25.181C22.2883 9.0779 19.4838 10.04 17.1976 11.7712L17.1957 11.7731C17.1158 11.8337 17.0377 11.8944 16.9596 11.9569L16.8732 12.0258L16.7253 12.1471L16.581 12.2693L16.4955 12.3437C16.4331 12.3973 16.3715 12.4518 16.3108 12.5073L16.2695 12.5441L16.0581 12.7416L16.048 12.7517C15.9313 12.8629 15.8165 12.9769 15.7044 13.0927L16.5874 13.9794L16.6472 13.9188L16.7455 13.8204C16.7813 13.7846 16.8162 13.7497 16.853 13.7157L16.9642 13.6082L17.0616 13.5181C17.1048 13.4768 17.1498 13.4372 17.1939 13.3968L17.2729 13.327C17.3271 13.2792 17.3823 13.2314 17.4374 13.1855L17.488 13.1423C17.5569 13.0844 17.6258 13.0274 17.6956 12.9714L17.7067 12.9631C19.8269 11.2594 22.4658 10.3318 25.1856 10.3341H25.2132C25.3143 10.3341 25.4154 10.3359 25.5164 10.3377C28.3264 10.4091 31.021 11.4704 33.125 13.3343L33.1811 13.384L33.3373 13.5264L33.4126 13.5962L33.5459 13.724L33.6332 13.8094L33.7526 13.9289L33.8013 13.9794L34.6871 13.0917ZM38.1597 28.8778H38.1551L38.1386 28.8714L38.0191 28.8392L35.9111 28.2732H35.9093L35.4544 28.151C35.4045 28.1376 35.3525 28.1343 35.3013 28.141C35.2501 28.1478 35.2007 28.1646 35.156 28.1905C35.1113 28.2163 35.0721 28.2507 35.0407 28.2917C35.0093 28.3327 34.9863 28.3795 34.9729 28.4294L31.9617 39.6999C31.9349 39.8009 31.9492 39.9084 32.0014 39.999C32.0535 40.0895 32.1393 40.1557 32.2401 40.1833L34.9371 40.9092C35.038 40.9359 35.1453 40.9214 35.2356 40.8691C35.3258 40.8167 35.3916 40.7307 35.4186 40.6299L36.0802 38.1543L38.4197 29.3952L38.4207 29.3924L38.4298 29.3584C38.4563 29.2589 38.4429 29.153 38.3924 29.0632C38.342 28.9735 38.2585 28.9069 38.1597 28.8778ZM36.6104 40.334C37.2322 40.422 37.8646 40.2792 38.3883 39.9326C38.912 39.586 39.2906 39.0597 39.4526 38.453L40.8383 33.2666C41 32.6591 40.9344 32.0135 40.6537 31.4511C40.3729 30.8886 39.8965 30.448 39.3138 30.2121L36.6104 40.334ZM17.7002 28.2392C17.7684 28.2207 17.8396 28.216 17.9096 28.2251C17.9796 28.2343 18.0472 28.2572 18.1083 28.2925C18.1695 28.3279 18.223 28.375 18.2659 28.4311C18.3088 28.4873 18.3401 28.5513 18.3582 28.6196L20.8273 37.8649C20.8505 37.9345 20.8592 38.0082 20.8529 38.0813C20.8466 38.1545 20.8254 38.2256 20.7906 38.2902C20.7558 38.3549 20.7082 38.4117 20.6506 38.4573C20.593 38.5029 20.5268 38.5362 20.4559 38.5552C20.3849 38.5742 20.3109 38.5785 20.2383 38.5679C20.1656 38.5572 20.0959 38.5318 20.0335 38.4932C19.971 38.4547 19.9171 38.4037 19.875 38.3435C19.833 38.2834 19.8037 38.2152 19.7889 38.1433L17.3198 28.899C17.283 28.761 17.3024 28.6141 17.3737 28.4905C17.445 28.3668 17.5624 28.2764 17.7002 28.2392ZM31.641 28.6196C31.678 28.4819 31.7682 28.3646 31.8918 28.2934C32.0154 28.2222 32.1621 28.2031 32.2998 28.2401C32.4375 28.2772 32.5549 28.3674 32.626 28.4909C32.6972 28.6145 32.7164 28.7613 32.6793 28.899L30.2093 38.1433C30.191 38.2114 30.1595 38.2753 30.1165 38.3312C30.0736 38.3871 30.02 38.4341 29.9589 38.4693C29.8978 38.5046 29.8304 38.5274 29.7605 38.5366C29.6905 38.5458 29.6195 38.5411 29.5514 38.5228C29.4832 38.5045 29.4194 38.473 29.3635 38.43C29.3075 38.3871 29.2606 38.3335 29.2254 38.2724C29.1901 38.2113 29.1672 38.1439 29.1581 38.074C29.1489 38.004 29.1536 37.933 29.1719 37.8649L31.641 28.6196Z" fill="white"/>
</svg>
