<svg width="50" height="50" viewBox="0 0 50 50" fill="none" xmlns="http://www.w3.org/2000/svg">
<rect width="50" height="50" rx="10" fill="#E51515"/>
<path fill-rule="evenodd" clip-rule="evenodd" d="M39.8204 25.2219H39.6388V26.8842C39.6388 28.5906 38.2493 29.9798 36.5358 29.9913C36.2093 31.3171 35.0049 32.3037 33.5725 32.3037H27.1796V35.1949H30.3344C32.0541 35.1949 33.4687 36.519 33.6038 38.1963C34.1087 38.3551 34.5492 38.6681 34.8615 39.0898C35.1737 39.5116 35.3415 40.0203 35.3405 40.5422C35.3405 41.8971 34.2328 43 32.8701 43C31.5083 43 30.3997 41.8971 30.3997 40.5422C30.3988 40.0192 30.5673 39.5096 30.8807 39.0873C31.1942 38.6651 31.6363 38.3524 32.1427 38.1945C32.0807 37.7649 31.864 37.3716 31.5321 37.0862C31.2001 36.8008 30.7751 36.6423 30.3344 36.6397H25.7265V38.1936C26.2331 38.3516 26.6753 38.6645 26.9889 39.0869C27.3025 39.5092 27.4712 40.019 27.4704 40.5422C27.4704 41.8971 26.3618 43 25 43C23.6382 43 22.5296 41.8971 22.5296 40.5422C22.5296 39.4384 23.2651 38.5037 24.2735 38.1936V36.6397H19.6844C19.2427 36.6421 18.8167 36.8012 18.4844 37.0877C18.1522 37.3742 17.9359 37.769 17.8752 38.1998C18.3772 38.3606 18.8146 38.6739 19.1244 39.0948C19.4342 39.5157 19.6005 40.0224 19.5994 40.5422C19.5994 41.8971 18.4917 43 17.129 43C15.7672 43 14.6595 41.8971 14.6595 40.5422C14.6595 39.4349 15.4004 38.4958 16.415 38.191C16.5528 36.5163 17.9665 35.1949 19.6844 35.1949H22.8204V32.3037H16.4275C14.9951 32.3037 13.7907 31.3171 13.4642 29.9913C11.7507 29.9798 10.3612 28.5906 10.3612 26.8842V25.2219H10.1796C8.97795 25.2219 8 24.2503 8 23.0548C8 21.8585 8.97795 20.8869 10.1796 20.8869H11.9234C13.1251 20.8869 14.1021 21.8585 14.1021 23.0548C14.1021 24.2503 13.1251 25.2219 11.9234 25.2219H11.8143V26.8842C11.8143 27.7942 12.5524 28.5351 13.4642 28.5457C13.6132 27.9374 13.9503 27.3897 14.4291 26.9782C14.9078 26.5666 15.5045 26.3116 16.1367 26.2482V12.3956C16.1367 8.86919 19.0205 6 22.5663 6H27.4337C30.9786 6 33.8633 8.86919 33.8633 12.3956V26.2482C35.1651 26.3715 36.2307 27.3115 36.5358 28.5457C36.9774 28.5378 37.3981 28.3591 37.7069 28.0481C38.0157 27.7372 38.1877 27.3191 38.1857 26.8842V25.2219H38.0766C36.8749 25.2219 35.897 24.2503 35.897 23.0548C35.897 21.8585 36.8749 20.8869 38.0766 20.8869H39.8204C41.0221 20.8869 42 21.8585 42 23.0548C42 24.2503 41.0221 25.2219 39.8204 25.2219ZM31.8528 40.5422C31.8528 41.0998 32.3091 41.5544 32.8701 41.5544C33.4311 41.5544 33.8874 41.0998 33.8874 40.5422C33.8874 39.9846 33.4311 39.5309 32.8701 39.5309C32.3091 39.5309 31.8528 39.9846 31.8528 40.5422ZM17.1299 39.5309C16.5689 39.5309 16.1126 39.9846 16.1126 40.5422C16.1126 41.0998 16.5689 41.5544 17.1299 41.5544C17.6909 41.5544 18.1472 41.0998 18.1472 40.5422C18.1472 39.9846 17.6909 39.5309 17.1299 39.5309ZM11.9234 23.7772C12.1169 23.7758 12.302 23.699 12.4381 23.5637C12.5743 23.4283 12.6504 23.2453 12.6499 23.0548C12.6507 22.8642 12.5746 22.681 12.4384 22.5454C12.3023 22.4099 12.1171 22.333 11.9234 22.3316H10.1796C9.98586 22.3328 9.80053 22.4096 9.66431 22.5452C9.52808 22.6808 9.4521 22.8641 9.45305 23.0548C9.45305 23.453 9.77874 23.7772 10.1796 23.7772H11.9234ZM23.9827 40.5422C23.9827 41.0998 24.439 41.5544 25 41.5544C25.561 41.5544 26.0173 41.0998 26.0173 40.5422C26.0173 39.9846 25.561 39.5309 25 39.5309C24.439 39.5309 23.9827 39.9846 23.9827 40.5422ZM24.2735 35.1949H25.7265V32.3037H24.2735V35.1949ZM33.5725 27.6797H27.9061C27.8102 27.6793 27.7152 27.6602 27.6268 27.6236C27.5383 27.587 27.458 27.5335 27.3906 27.4664C27.3231 27.3992 27.2697 27.3196 27.2335 27.2321C27.1973 27.1446 27.179 27.051 27.1796 26.9565C27.1796 26.5574 27.5044 26.2341 27.9061 26.2341H32.4102V12.3956C32.4102 9.66644 30.1778 7.44561 27.4337 7.44561H22.5663C19.8222 7.44561 17.5898 9.66644 17.5898 12.3956V26.2341H22.0939C22.4947 26.2341 22.8204 26.5574 22.8204 26.9565C22.8214 27.1472 22.7454 27.3305 22.6092 27.4661C22.4729 27.6017 22.2876 27.6786 22.0939 27.6797H16.4275C15.5462 27.6797 14.8286 28.3924 14.8286 29.2689C14.8286 30.1454 15.5462 30.859 16.4275 30.859H33.5725C34.4538 30.859 35.1705 30.1454 35.1705 29.2689C35.1705 28.3924 34.4538 27.6797 33.5725 27.6797ZM39.8204 22.3316H38.0766C37.8829 22.3328 37.6975 22.4096 37.5613 22.5452C37.4251 22.6808 37.3491 22.8641 37.3501 23.0548C37.3501 23.453 37.6757 23.7772 38.0766 23.7772H39.8204C40.014 23.776 40.1992 23.6993 40.3354 23.5639C40.4716 23.4285 40.5477 23.2454 40.5469 23.0548C40.5479 22.8641 40.4719 22.6808 40.3357 22.5452C40.1995 22.4096 40.0141 22.3328 39.8204 22.3316ZM25 27.6797C24.8063 27.6786 24.621 27.6017 24.4847 27.4661C24.3485 27.3305 24.2725 27.1472 24.2735 26.9565C24.2728 26.7659 24.3488 26.5828 24.485 26.4474C24.6212 26.312 24.8064 26.2353 25 26.2341C25.1936 26.2353 25.3788 26.312 25.515 26.4474C25.6512 26.5828 25.7272 26.7659 25.7265 26.9565C25.7275 27.1472 25.6515 27.3305 25.5153 27.4661C25.379 27.6017 25.1937 27.6786 25 27.6797Z" fill="white"/>
</svg>
