<svg width="50" height="50" viewBox="0 0 50 50" fill="none" xmlns="http://www.w3.org/2000/svg">
<rect width="50" height="50" rx="10" fill="#E51515"/>
<path fill-rule="evenodd" clip-rule="evenodd" d="M35.3374 43H21.1497C21.0763 43.0009 21.0034 42.9874 20.9352 42.9603C20.867 42.9331 20.8049 42.8927 20.7523 42.8415C20.6997 42.7903 20.6577 42.7292 20.6287 42.6618C20.5997 42.5943 20.5843 42.5218 20.5833 42.4484C20.5833 42.1419 20.8368 41.8948 21.1497 41.8948H35.3374C35.8465 41.8948 36.2601 41.4918 36.2601 40.9965V10.0045C36.2568 9.763 36.1577 9.53265 35.9847 9.36404C35.8118 9.19542 35.5789 9.10232 35.3374 9.10515H15.0555C14.8141 9.1026 14.5815 9.19583 14.4088 9.36441C14.236 9.533 14.1371 9.76318 14.1338 10.0045V40.9965C14.1338 41.4918 14.5474 41.8948 15.0555 41.8948H19.4336C19.7465 41.8948 20 42.1419 20 42.4484C20 42.7528 19.7465 43 19.4336 43H15.0555C13.9217 43 13 42.1016 13 40.9965V10.0045C13 8.89939 13.9217 8 15.0555 8H35.3374C36.4712 8 37.3939 8.89939 37.3939 10.0045V40.9965C37.3939 42.1016 36.4712 43 35.3374 43ZM21.0341 31.801C20.9607 31.802 20.8878 31.7885 20.8196 31.7613C20.7514 31.7341 20.6893 31.6938 20.6367 31.6426C20.5841 31.5914 20.5421 31.5303 20.5131 31.4629C20.4841 31.3954 20.4687 31.3229 20.4677 31.2495V31.2474C20.4677 30.9419 20.7212 30.6948 21.0341 30.6948C21.348 30.6948 21.6015 30.9419 21.6015 31.2474C21.6007 31.321 21.5853 31.3938 21.5563 31.4615C21.5274 31.5292 21.4853 31.5905 21.4326 31.6419C21.3799 31.6933 21.3176 31.7338 21.2492 31.7612C21.1808 31.7885 21.1077 31.802 21.0341 31.801ZM22.0926 33.6974C22.0192 33.6984 21.9463 33.6849 21.8781 33.6577C21.8099 33.6305 21.7477 33.5902 21.6951 33.5389C21.6426 33.4877 21.6006 33.4267 21.5716 33.3592C21.5426 33.2918 21.5272 33.2193 21.5262 33.1459V33.1438C21.5262 32.8394 21.7797 32.5912 22.0926 32.5912C22.4054 32.5912 22.66 32.8394 22.66 33.1438C22.6577 33.2923 22.5968 33.4339 22.4905 33.5376C22.3842 33.6414 22.2411 33.6988 22.0926 33.6974ZM22.5295 31.2495V31.2474C22.5295 30.9419 22.783 30.6948 23.0959 30.6948C23.4098 30.6948 23.6633 30.9419 23.6633 31.2474C23.6625 31.321 23.6471 31.3938 23.6182 31.4615C23.5892 31.5292 23.5471 31.5905 23.4944 31.6419C23.4417 31.6933 23.3794 31.7338 23.311 31.7612C23.2426 31.7885 23.1695 31.802 23.0959 31.801C23.0225 31.802 22.9496 31.7885 22.8814 31.7613C22.8132 31.7341 22.7511 31.6938 22.6985 31.6426C22.6459 31.5914 22.6039 31.5303 22.5749 31.4629C22.5459 31.3954 22.5305 31.3229 22.5295 31.2495ZM25.6063 39.9793C24.252 39.9793 23.15 38.905 23.15 37.5845C23.15 36.2641 24.252 35.1897 25.6063 35.1897C26.9607 35.1897 28.0638 36.2641 28.0638 37.5845C28.0638 38.905 26.9607 39.9793 25.6063 39.9793ZM25.6063 36.2948C24.8777 36.2948 24.2838 36.8739 24.2838 37.5845C24.2838 38.2962 24.8777 38.8742 25.6063 38.8742C26.336 38.8742 26.9289 38.2962 26.9289 37.5845C26.9289 36.8739 26.336 36.2948 25.6063 36.2948ZM25.6063 38.1286C25.4604 38.13 25.3199 38.0735 25.2155 37.9716C25.1112 37.8696 25.0515 37.7304 25.0495 37.5845C25.0515 37.4386 25.1112 37.2994 25.2155 37.1974C25.3199 37.0955 25.4604 37.039 25.6063 37.0404C25.7524 37.0387 25.8932 37.0951 25.9978 37.1971C26.1024 37.2991 26.1623 37.4384 26.1642 37.5845C26.1623 37.7306 26.1024 37.8699 25.9978 37.9719C25.8932 38.074 25.7524 38.1303 25.6063 38.1286ZM28.3013 33.6984C28.2278 33.6994 28.1548 33.6859 28.0865 33.6587C28.0181 33.6314 27.9559 33.591 27.9032 33.5397C27.8505 33.4884 27.8084 33.4272 27.7794 33.3596C27.7503 33.292 27.7349 33.2194 27.7339 33.1459C27.7339 32.8404 27.9874 32.5922 28.3013 32.5922C28.6142 32.5922 28.8677 32.8394 28.8677 33.1438V33.1459C28.8669 33.2194 28.8516 33.292 28.8226 33.3595C28.7937 33.4271 28.7517 33.4883 28.6991 33.5396C28.6465 33.591 28.5843 33.6314 28.5161 33.6587C28.4478 33.6859 28.3748 33.6994 28.3013 33.6984ZM28.7924 31.2495C28.7924 30.9441 29.0459 30.6959 29.3588 30.6959C29.6727 30.6959 29.9262 30.9419 29.9262 31.2474V31.2495C29.9252 31.3231 29.9098 31.3957 29.8807 31.4633C29.8517 31.5308 29.8096 31.592 29.7569 31.6433C29.7042 31.6946 29.642 31.7351 29.5736 31.7623C29.5053 31.7896 29.4323 31.8031 29.3588 31.8021C29.2853 31.8031 29.2123 31.7895 29.1441 31.7623C29.0758 31.735 29.0136 31.6946 28.961 31.6433C28.9084 31.5919 28.8664 31.5307 28.8375 31.4632C28.8085 31.3956 28.7932 31.323 28.7924 31.2495ZM30.6453 38.9484C29.8732 38.9484 29.2453 38.3365 29.2453 37.5845C29.2453 36.8325 29.8732 36.2206 30.6453 36.2206C31.4163 36.2206 32.0442 36.8325 32.0442 37.5845C32.0442 38.3365 31.4163 38.9484 30.6453 38.9484ZM30.6453 37.3257C30.6109 37.3253 30.5767 37.3317 30.5448 37.3444C30.5128 37.3572 30.4837 37.3762 30.4591 37.4002C30.4345 37.4242 30.4148 37.4529 30.4013 37.4845C30.3877 37.5161 30.3805 37.5501 30.3801 37.5845C30.3801 37.7266 30.4989 37.8433 30.6453 37.8433C30.7916 37.8433 30.9104 37.7266 30.9104 37.5845C30.91 37.5501 30.9028 37.5161 30.8893 37.4845C30.8757 37.4529 30.8561 37.4242 30.8315 37.4002C30.8068 37.3762 30.7777 37.3572 30.7458 37.3444C30.7138 37.3317 30.6797 37.3253 30.6453 37.3257ZM31.8575 33.1459C31.8575 32.8404 32.111 32.5922 32.4239 32.5922C32.7378 32.5922 32.9913 32.8394 32.9913 33.1438V33.1459C32.9904 33.2194 32.9749 33.292 32.9459 33.3596C32.9168 33.4272 32.8748 33.4884 32.8221 33.5397C32.7694 33.591 32.7071 33.6314 32.6388 33.6587C32.5705 33.6859 32.4975 33.6994 32.4239 33.6984C32.3504 33.6994 32.2775 33.6859 32.2092 33.6587C32.1409 33.6314 32.0787 33.591 32.0261 33.5396C31.9735 33.4883 31.9315 33.4271 31.9026 33.3595C31.8737 33.292 31.8584 33.2194 31.8575 33.1459ZM33.6966 38.9484C32.9245 38.9484 32.2966 38.3365 32.2966 37.5845C32.2966 36.8325 32.9245 36.2206 33.6966 36.2206C34.4677 36.2206 35.0956 36.8325 35.0956 37.5845C35.0956 38.3365 34.4677 38.9484 33.6966 38.9484ZM33.6966 37.3257C33.6271 37.3249 33.56 37.3516 33.5101 37.4001C33.4602 37.4486 33.4315 37.5149 33.4304 37.5845C33.4304 37.7266 33.5503 37.8433 33.6966 37.8433C33.8419 37.8433 33.9618 37.7266 33.9618 37.5845C33.9614 37.5501 33.9542 37.5161 33.9406 37.4845C33.9271 37.4529 33.9074 37.4242 33.8828 37.4002C33.8582 37.3762 33.8291 37.3572 33.7971 37.3444C33.7652 37.3317 33.731 37.3253 33.6966 37.3257ZM31.4206 30.6959C31.7335 30.6959 31.988 30.9419 31.988 31.2474V31.2495C31.987 31.3231 31.9716 31.3957 31.9425 31.4633C31.9135 31.5308 31.8714 31.592 31.8187 31.6433C31.7661 31.6946 31.7038 31.7351 31.6355 31.7623C31.5671 31.7896 31.4941 31.8031 31.4206 31.8021C31.3471 31.8031 31.2741 31.7895 31.2059 31.7623C31.1376 31.735 31.0754 31.6946 31.0228 31.6433C30.9702 31.5919 30.9282 31.5307 30.8993 31.4632C30.8704 31.3956 30.855 31.323 30.8542 31.2495C30.8542 30.9441 31.1077 30.6959 31.4206 30.6959ZM30.3632 33.6984C30.2896 33.6994 30.2166 33.6859 30.1483 33.6587C30.08 33.6314 30.0177 33.591 29.965 33.5397C29.9123 33.4884 29.8702 33.4272 29.8412 33.3596C29.8121 33.292 29.7967 33.2194 29.7957 33.1459C29.7957 32.8404 30.0492 32.5922 30.3632 32.5922C30.676 32.5922 30.9295 32.8394 30.9295 33.1438V33.1459C30.9287 33.2194 30.9134 33.292 30.8844 33.3595C30.8555 33.4271 30.8136 33.4883 30.7609 33.5396C30.7083 33.591 30.6461 33.6314 30.5779 33.6587C30.5096 33.6859 30.4366 33.6994 30.3632 33.6984ZM24.1544 33.6974C24.0809 33.6985 24.0079 33.6851 23.9396 33.658C23.8713 33.6309 23.809 33.5905 23.7563 33.5393C23.7036 33.4881 23.6615 33.427 23.6324 33.3595C23.6034 33.2919 23.5879 33.2194 23.587 33.1459V33.1438C23.587 32.8394 23.8415 32.5912 24.1544 32.5912C24.4673 32.5912 24.7218 32.8394 24.7218 33.1438C24.7196 33.2923 24.6586 33.4339 24.5523 33.5376C24.446 33.6414 24.3029 33.6988 24.1544 33.6974ZM25.2362 31.8021C25.1627 31.8031 25.0896 31.7896 25.0213 31.7623C24.953 31.7351 24.8907 31.6946 24.838 31.6433C24.7853 31.592 24.7433 31.5308 24.7142 31.4633C24.6852 31.3957 24.6697 31.3231 24.6688 31.2495C24.6688 30.9441 24.9223 30.6959 25.2362 30.6959C25.5491 30.6959 25.8026 30.9419 25.8026 31.2474V31.2495C25.8017 31.323 25.7864 31.3956 25.7575 31.4632C25.7286 31.5307 25.6866 31.5919 25.634 31.6433C25.5814 31.6946 25.5192 31.735 25.4509 31.7623C25.3826 31.7895 25.3097 31.8031 25.2362 31.8021ZM27.2969 30.6959C27.6109 30.6959 27.8644 30.9419 27.8644 31.2474V31.2495C27.8634 31.3231 27.848 31.3957 27.8189 31.4633C27.7899 31.5308 27.7478 31.592 27.6951 31.6433C27.6424 31.6946 27.5801 31.7351 27.5118 31.7623C27.4435 31.7896 27.3705 31.8031 27.2969 31.8021C27.2235 31.8031 27.1505 31.7895 27.0822 31.7623C27.014 31.735 26.9518 31.6946 26.8992 31.6433C26.8466 31.5919 26.8046 31.5307 26.7757 31.4632C26.7467 31.3956 26.7314 31.323 26.7306 31.2495C26.7306 30.9441 26.9841 30.6959 27.2969 30.6959ZM26.2395 33.6984C26.166 33.6994 26.093 33.6859 26.0247 33.6587C25.9563 33.6314 25.894 33.591 25.8414 33.5397C25.7887 33.4884 25.7466 33.4272 25.7176 33.3596C25.6885 33.292 25.6731 33.2194 25.6721 33.1459C25.6721 32.8404 25.9256 32.5922 26.2395 32.5922C26.5524 32.5922 26.8059 32.8394 26.8059 33.1438V33.1459C26.8051 33.2194 26.7897 33.292 26.7608 33.3595C26.7319 33.4271 26.6899 33.4883 26.6373 33.5396C26.5847 33.591 26.5225 33.6314 26.4542 33.6587C26.386 33.6859 26.313 33.6994 26.2395 33.6984ZM18.9733 30.6948C19.2862 30.6948 19.5397 30.9419 19.5397 31.2474C19.5389 31.3209 19.5235 31.3936 19.4946 31.4612C19.4657 31.5288 19.4238 31.5901 19.3712 31.6415C19.3186 31.6929 19.2564 31.7335 19.1881 31.7608C19.1199 31.7882 19.0469 31.8019 18.9733 31.801C18.8998 31.8021 18.8268 31.7888 18.7585 31.7616C18.6902 31.7345 18.6279 31.6942 18.5752 31.643C18.5225 31.5917 18.4804 31.5306 18.4514 31.4631C18.4223 31.3956 18.4069 31.323 18.4059 31.2495V31.2474C18.4059 30.9419 18.6594 30.6948 18.9733 30.6948ZM17.9689 33.6974C17.8955 33.6984 17.8227 33.6849 17.7545 33.6577C17.6863 33.6305 17.6241 33.5902 17.5715 33.5389C17.5189 33.4877 17.4769 33.4267 17.4479 33.3592C17.419 33.2918 17.4035 33.2193 17.4026 33.1459V33.1438C17.4026 32.8394 17.6561 32.5912 17.9689 32.5912C18.2829 32.5912 18.5364 32.8394 18.5364 33.1438C18.5355 33.2174 18.5202 33.2901 18.4912 33.3578C18.4622 33.4255 18.4202 33.4868 18.3675 33.5383C18.3148 33.5897 18.2524 33.6302 18.184 33.6575C18.1157 33.6848 18.0426 33.6984 17.9689 33.6974ZM34.5281 28.755H15.9124C15.7641 28.7567 15.6211 28.6994 15.5149 28.5958C15.4088 28.4922 15.348 28.3507 15.3461 28.2024C15.3461 27.8969 15.5995 27.6498 15.9124 27.6498H34.5281C34.8421 27.6498 35.0956 27.8969 35.0956 28.2024C35.0946 28.2759 35.0792 28.3486 35.0501 28.4161C35.0211 28.4837 34.979 28.5449 34.9263 28.5962C34.8736 28.6475 34.8113 28.688 34.743 28.7152C34.6747 28.7424 34.6017 28.756 34.5281 28.755ZM32.5225 12.025C32.8354 12.025 33.0889 12.2732 33.0889 12.5786C33.0889 12.8841 32.8354 13.1301 32.5225 13.1301H32.4483C32.3748 13.1313 32.3018 13.1179 32.2335 13.0908C32.1652 13.0636 32.1029 13.0233 32.0502 12.9721C31.9975 12.9209 31.9554 12.8597 31.9264 12.7922C31.8973 12.7247 31.8818 12.6521 31.8809 12.5786C31.8809 12.2732 32.1344 12.025 32.4483 12.025H32.5225ZM30.3557 10.7194C30.3557 10.4139 30.6103 10.1668 30.9232 10.1668H34.5281C34.8421 10.1668 35.0956 10.4139 35.0956 10.7194V25.5912C35.0946 25.6647 35.0792 25.7374 35.0501 25.8049C35.0211 25.8725 34.979 25.9337 34.9263 25.985C34.8736 26.0363 34.8113 26.0768 34.743 26.104C34.6747 26.1312 34.6017 26.1447 34.5281 26.1438H15.9124C15.8389 26.1447 15.766 26.1312 15.6977 26.104C15.6295 26.0767 15.5672 26.0363 15.5146 25.9849C15.462 25.9336 15.4201 25.8724 15.3911 25.8049C15.3622 25.7373 15.3469 25.6647 15.3461 25.5912V10.7194C15.3461 10.4139 15.5995 10.1668 15.9124 10.1668H29.2092C29.5232 10.1668 29.7766 10.4139 29.7766 10.7194C29.7757 10.7929 29.7602 10.8656 29.7312 10.9331C29.7021 11.0007 29.6601 11.0619 29.6074 11.1132C29.5547 11.1645 29.4924 11.205 29.4241 11.2322C29.3558 11.2594 29.2828 11.2729 29.2092 11.272H16.4798V13.8842H33.9618V11.272H30.9232C30.8496 11.2729 30.7766 11.2594 30.7083 11.2322C30.64 11.205 30.5777 11.1645 30.525 11.1132C30.4723 11.0619 30.4302 11.0007 30.4012 10.9331C30.3721 10.8656 30.3567 10.7929 30.3557 10.7194ZM16.4798 25.0386H33.9618V22.4253H16.4798V25.0386ZM16.4798 21.3201H33.9618V18.7079H16.4798V21.3201ZM16.4798 14.9894V17.6027H33.9618V14.9894H16.4798ZM32.5225 16.8486H32.4483C32.3748 16.8496 32.3017 16.8361 32.2334 16.8089C32.1651 16.7816 32.1028 16.7412 32.0501 16.6899C31.9974 16.6386 31.9554 16.5774 31.9263 16.5098C31.8973 16.4422 31.8818 16.3696 31.8809 16.296C31.8809 15.9906 32.1344 15.7435 32.4483 15.7435H32.5225C32.8354 15.7435 33.0889 15.9906 33.0889 16.296C33.0881 16.3695 33.0728 16.4421 33.0438 16.5097C33.0149 16.5773 32.9729 16.6385 32.9203 16.6898C32.8677 16.7411 32.8055 16.7816 32.7373 16.8088C32.669 16.8361 32.596 16.8496 32.5225 16.8486ZM32.5225 20.5671H32.4483C32.3748 20.5681 32.3017 20.5546 32.2334 20.5273C32.1651 20.5001 32.1028 20.4597 32.0501 20.4083C31.9974 20.357 31.9554 20.2958 31.9263 20.2283C31.8973 20.1607 31.8818 20.0881 31.8809 20.0145C31.8809 19.7091 32.1344 19.462 32.4483 19.462H32.5225C32.8354 19.462 33.0889 19.7091 33.0889 20.0145C33.0881 20.088 33.0728 20.1606 33.0438 20.2282C33.0149 20.2958 32.9729 20.357 32.9203 20.4083C32.8677 20.4596 32.8055 20.5001 32.7373 20.5273C32.669 20.5546 32.596 20.5681 32.5225 20.5671ZM32.5225 24.2845H32.4483C32.3748 24.2855 32.3017 24.272 32.2334 24.2447C32.1651 24.2175 32.1028 24.1771 32.0501 24.1258C31.9974 24.0745 31.9554 24.0133 31.9263 23.9457C31.8973 23.8781 31.8818 23.8055 31.8809 23.7319C31.8809 23.4265 32.1344 23.1794 32.4483 23.1794H32.5225C32.8354 23.1794 33.0889 23.4265 33.0889 23.7319C33.0881 23.8054 33.0728 23.878 33.0438 23.9456C33.0149 24.0132 32.9729 24.0744 32.9203 24.1257C32.8677 24.177 32.8055 24.2175 32.7373 24.2447C32.669 24.272 32.596 24.2855 32.5225 24.2845ZM19.4644 33.1459V33.1438C19.4644 32.8394 19.7179 32.5912 20.0307 32.5912C20.3436 32.5912 20.5982 32.8394 20.5982 33.1438C20.5959 33.2923 20.535 33.4339 20.4287 33.5376C20.3224 33.6414 20.1793 33.6988 20.0307 33.6974C19.9573 33.6984 19.8845 33.6849 19.8163 33.6577C19.7481 33.6305 19.6859 33.5902 19.6333 33.5389C19.5807 33.4877 19.5387 33.4267 19.5098 33.3592C19.4808 33.2918 19.4654 33.2193 19.4644 33.1459Z" fill="white"/>
</svg>
