<svg width="50" height="50" viewBox="0 0 50 50" fill="none" xmlns="http://www.w3.org/2000/svg">
<rect width="50" height="50" rx="10" fill="#E51515"/>
<path fill-rule="evenodd" clip-rule="evenodd" d="M36.9956 30.1259L36.9927 30.0481L36.9917 30.0151L36.9821 29.7934L36.9764 29.7069L36.9735 29.6641C36.9695 29.597 36.965 29.5299 36.9601 29.4629L36.9514 29.3744L36.9447 29.3054C36.9398 29.2489 36.9343 29.1925 36.9284 29.1362L36.9169 29.039L36.9111 28.9875L36.8881 28.8105L36.8727 28.7026L36.8679 28.6715C36.8592 28.6098 36.8496 28.5482 36.8391 28.4868L36.8189 28.3662L36.8161 28.3497L36.7825 28.1679L36.7556 28.0308L36.7162 27.849L36.6864 27.7168C36.6483 27.5501 36.6061 27.3845 36.5597 27.22L36.5549 27.2025L36.5252 27.0956L36.4685 26.9079L36.432 26.7903C36.4116 26.7265 36.3905 26.663 36.3687 26.5997L36.3581 26.5667L36.3322 26.4899C36.3092 26.4234 36.2852 26.3573 36.2602 26.2916L36.2487 26.2595L36.2237 26.1914C36.1971 26.1215 36.1699 26.0518 36.1421 25.9824L36.1085 25.8978C36.0763 25.8197 36.0433 25.7419 36.0096 25.6645L36.0019 25.646C35.8682 25.3376 35.7212 25.0353 35.5613 24.7399C34.8576 23.2797 34.4745 21.8632 34.4092 20.5041C34.4111 20.4811 34.4121 20.4581 34.4121 20.4351C34.2681 16.7874 36.4887 14.634 36.65 14.4843L36.6576 14.4765L36.6586 14.4755C36.7123 14.4278 36.7563 14.3701 36.7882 14.3054C36.8347 14.21 36.8529 14.1031 36.8406 13.9975C36.8284 13.8919 36.7861 13.7922 36.7191 13.7104C36.4411 13.376 36.148 13.0548 35.8407 12.7479C33.6546 10.5546 30.8456 8.97483 28.0471 8.37985C27.9669 8.36281 27.8839 8.364 27.8042 8.38333C27.7246 8.40266 27.6501 8.43966 27.5862 8.49165C27.5229 8.54319 27.4717 8.60845 27.4365 8.68264C27.4012 8.75683 27.3829 8.83807 27.3827 8.92039V11.5074H26.5033V9.00886C26.5033 8.17666 25.8284 7.50001 24.9999 7.50001C24.6032 7.49846 24.2221 7.65636 23.9402 7.93906C23.6584 8.22176 23.4988 8.60616 23.4965 9.00788V11.5074H22.6171V8.92039C22.6171 8.83803 22.5989 8.75673 22.5636 8.6825C22.5284 8.60828 22.4771 8.54305 22.4136 8.49165C22.3495 8.4397 22.2749 8.40274 22.195 8.38341C22.1152 8.36408 22.0321 8.36286 21.9518 8.37985C18.967 9.01469 15.9698 10.7695 13.73 13.1942C13.5761 13.3625 13.4263 13.5346 13.2807 13.7104C13.1896 13.8202 13.1448 13.9618 13.1559 14.1048C13.1671 14.2478 13.2333 14.3806 13.3402 14.4745C13.3633 14.4959 15.7365 16.6688 15.5877 20.4341C15.5867 20.4581 15.5877 20.4822 15.5906 20.506C15.5253 21.8652 15.1413 23.2797 14.4385 24.7399C14.3349 24.9309 14.2366 25.1247 14.1438 25.3213V25.3233C14.0994 25.4168 14.0565 25.5111 14.0151 25.6062L13.9902 25.6635L13.8923 25.8959L13.8692 25.9532L13.8577 25.9824L13.7761 26.1904L13.7502 26.2624L13.7386 26.2925C13.7146 26.3577 13.6906 26.4228 13.6686 26.4889L13.6407 26.5686L13.6302 26.6017L13.5668 26.7913L13.5303 26.9099L13.4746 27.0965L13.4401 27.22C13.41 27.324 13.3825 27.4287 13.3575 27.534C13.3418 27.5947 13.3271 27.6556 13.3133 27.7168L13.2826 27.848L13.2442 28.0337L13.2173 28.1669L13.1837 28.3497L13.1828 28.3575C13.1629 28.462 13.1459 28.567 13.1319 28.6725L13.1281 28.6948L13.1117 28.8115C13.1031 28.8698 13.0964 28.9281 13.0887 28.9884L13.0839 29.0293L13.0714 29.1362C13.0655 29.1932 13.06 29.2502 13.0551 29.3073L13.0493 29.3666L13.0397 29.4638L13.0282 29.6378L13.0234 29.701L13.0177 29.7934C13.0138 29.8634 13.0109 29.9334 13.009 30.0034L13.0071 30.053L13.0042 30.1249C12.9827 30.9506 13.0438 31.7763 13.1866 32.5894C13.2212 32.7848 13.2615 32.9832 13.3066 33.1786C14.5364 38.5247 19.2176 42.3561 24.6898 42.4951C24.8962 42.5013 25.1027 42.5016 25.309 42.4961C28.1806 42.4238 30.9325 41.3158 33.069 39.3715C35.177 37.4548 36.5375 34.8372 36.9044 31.9925C36.9818 31.3736 37.0123 30.7495 36.9956 30.1259ZM24.5986 9.00788C24.5986 8.78622 24.7781 8.6054 24.9999 8.6054C25.2217 8.6054 25.4012 8.78622 25.4012 9.00788V11.5074H24.5986V9.00788ZM22.6171 12.6118H27.3827V13.6608H22.6171V12.6118ZM22.6171 14.7662H27.3827V15.8152H22.6171V14.7662ZM22.6171 16.9206H27.3827V17.9696H22.6171V16.9206ZM14.4529 14.039L14.5384 13.9457C15.4375 12.9752 16.4535 12.123 17.5625 11.4092C18.7839 10.6154 20.1168 10.013 21.5159 9.62231V19.9033H16.6946C16.6643 17.7399 15.869 15.6592 14.4529 14.039ZM24.4488 41.38C19.5958 41.137 15.4773 37.6964 14.38 32.9287C14.1954 32.1189 14.1017 31.2905 14.1006 30.4594C14.1008 30.3401 14.1031 30.2208 14.1073 30.1016L14.1092 30.0433L14.1179 29.8527L14.1227 29.7778L14.1275 29.7098C14.1323 29.6303 14.1384 29.5509 14.1457 29.4716L14.1515 29.4094C14.1588 29.3276 14.1674 29.2459 14.1774 29.1644L14.1831 29.1216C14.1889 29.0672 14.1956 29.0137 14.2033 28.9602L14.2177 28.8591L14.2215 28.8348L14.2475 28.6666L14.2676 28.55L14.2686 28.5422L14.2993 28.3759L14.3233 28.2525L14.3588 28.0872L14.3867 27.9666L14.426 27.8014L14.4558 27.6837L14.5009 27.5165L14.5326 27.4037L14.5835 27.2336L14.6171 27.1267L14.6737 26.9546L14.6852 26.9215L14.7083 26.8535C14.7284 26.7932 14.7505 26.7339 14.7726 26.6746L14.7851 26.6406L14.8062 26.5832L14.8801 26.3936L14.9109 26.3159C14.9397 26.2449 14.9694 26.1739 15.0011 26.102L15.0222 26.0524C15.0597 25.9668 15.099 25.8823 15.1384 25.7977L15.1441 25.7841C15.2267 25.6091 15.3169 25.4321 15.413 25.2552L15.4245 25.2319C16.1743 23.6783 16.5343 22.2628 16.6485 21.0077H22.066C22.138 21.0082 22.2095 20.9943 22.2762 20.9668C22.3429 20.9393 22.4036 20.8987 22.4548 20.8474C22.506 20.7961 22.5467 20.7351 22.5745 20.6678C22.6024 20.6006 22.6168 20.5284 22.6171 20.4555V19.074H24.4488V31.5084C24.0455 31.6258 23.6906 31.8725 23.4375 32.2115C23.1844 32.5506 23.0468 32.9636 23.0453 33.3886C23.0453 34.2781 23.6386 35.0306 24.4488 35.2698V41.38ZM24.9999 34.2451C24.7749 34.2459 24.5588 34.1562 24.3989 33.9958C24.2391 33.8354 24.1487 33.6174 24.1474 33.3895C24.1474 32.9171 24.5295 32.533 24.9999 32.533C25.4703 32.533 25.8524 32.9171 25.8524 33.3895C25.8524 33.8611 25.4703 34.2451 24.9999 34.2451ZM35.8109 31.8525C35.1504 37.0644 30.7649 41.1156 25.551 41.38V35.2698C25.9542 35.1522 26.309 34.9055 26.5621 34.5665C26.8151 34.2275 26.9528 33.8145 26.9545 33.3895C26.9545 32.5 26.3612 31.7475 25.551 31.5084V19.075H27.3827V20.4564C27.383 20.5294 27.3974 20.6016 27.4253 20.6688C27.4531 20.7361 27.4938 20.7971 27.545 20.8484C27.5962 20.8997 27.6569 20.9403 27.7236 20.9678C27.7903 20.9953 27.8618 21.0092 27.9338 21.0087H29.5044C29.5764 21.0092 29.6478 20.9953 29.7145 20.9678C29.7813 20.9403 29.842 20.8997 29.8931 20.8484C29.9443 20.7971 29.985 20.7361 30.0129 20.6688C30.0407 20.6016 30.0552 20.5294 30.0555 20.4564C30.0552 20.3835 30.0408 20.3112 30.0129 20.2439C29.9851 20.1766 29.9444 20.1155 29.8932 20.0641C29.842 20.0128 29.7813 19.9721 29.7146 19.9445C29.6479 19.9169 29.5765 19.9029 29.5044 19.9033H28.4839V9.62231C30.7899 10.2503 33.069 11.5823 34.9056 13.374C35.0957 13.5607 35.2819 13.7512 35.4614 13.9457L35.5469 14.039C34.1308 15.6592 33.3355 17.7399 33.3052 19.9033H31.2181C31.146 19.9029 31.0746 19.9169 31.0078 19.9445C30.9411 19.9721 30.8804 20.0128 30.8293 20.0641C30.7781 20.1155 30.7374 20.1766 30.7096 20.2439C30.6817 20.3112 30.6673 20.3835 30.667 20.4564C30.6673 20.5294 30.6817 20.6016 30.7096 20.6688C30.7374 20.7361 30.7781 20.7971 30.8293 20.8484C30.8805 20.8997 30.9412 20.9403 31.0079 20.9678C31.0746 20.9953 31.146 21.0092 31.2181 21.0087H33.3503C33.4655 22.2628 33.8255 23.6783 34.5753 25.2328L34.5868 25.2562C34.6809 25.4292 34.7702 25.6052 34.8528 25.7792L34.8585 25.7918C34.8989 25.8784 34.9382 25.9649 34.9776 26.0553L34.9987 26.1039C35.0294 26.1739 35.0592 26.2449 35.088 26.3159L35.1197 26.3936L35.1936 26.5842L35.2147 26.6396L35.2272 26.6746L35.2915 26.8535L35.3261 26.9546L35.3827 27.1267L35.4163 27.2336L35.4672 27.4047L35.4931 27.499L35.4989 27.5165C35.5254 27.611 35.5501 27.7059 35.5728 27.8014C35.5872 27.8558 35.6006 27.9112 35.6131 27.9666L35.641 28.0882L35.6755 28.2534L35.7005 28.3769L35.7302 28.5422L35.7331 28.5577L35.7523 28.6666L35.7782 28.8348L35.7831 28.8669L35.7965 28.9612L35.8167 29.1216L35.8234 29.1731L35.833 29.2568L35.8483 29.4094L35.8551 29.4794L35.8618 29.5533L35.8743 29.736L35.8771 29.7856L35.8819 29.8537C35.8858 29.9208 35.8877 29.9878 35.8906 30.0578L35.8915 30.0967L35.8944 30.156C35.9102 30.7229 35.8822 31.2901 35.8109 31.8525Z" fill="white"/>
</svg>
