<svg width="50" height="50" viewBox="0 0 50 50" fill="none" xmlns="http://www.w3.org/2000/svg">
<rect width="50" height="50" rx="10" fill="#E51515"/>
<path fill-rule="evenodd" clip-rule="evenodd" d="M36.167 12H13.833C11.74 12 9.5 13.151 9.5 16.375V31.492C9.5 34.716 11.74 35.868 13.833 35.868H22.1V38.654H20.727C20.639 38.6544 20.552 38.6721 20.4708 38.7061C20.3897 38.7402 20.3161 38.7899 20.2541 38.8524C20.1922 38.9149 20.1432 38.9889 20.1099 39.0704C20.0765 39.1518 20.0596 39.239 20.06 39.327C20.0596 39.415 20.0765 39.5022 20.1099 39.5836C20.1432 39.6651 20.1922 39.7391 20.2541 39.8016C20.3161 39.8641 20.3897 39.9138 20.4708 39.9479C20.552 39.9819 20.639 39.9996 20.727 40H29.527C29.7045 39.9989 29.8744 39.9275 29.9992 39.8013C30.1241 39.6751 30.1938 39.5045 30.193 39.327C30.1938 39.1495 30.1241 38.9789 29.9992 38.8527C29.8744 38.7265 29.7045 38.6551 29.527 38.654H27.9V35.868H36.167C39.36 35.868 40.5 33.606 40.5 31.492V16.375C40.5 13.151 38.26 12 36.167 12ZM26.567 38.654H23.433V35.868H26.567V38.654ZM39.167 31.492C39.167 32.401 38.873 34.521 36.167 34.521H13.833C12.933 34.521 10.833 34.226 10.833 31.492V30.53H39.167V31.492ZM39.167 29.19H10.833V16.402C10.833 13.67 12.933 13.373 13.833 13.373H36.167C37.067 13.373 39.167 13.67 39.167 16.402V29.19Z" fill="white"/>
</svg>
