<svg width="50" height="50" viewBox="0 0 50 50" fill="none" xmlns="http://www.w3.org/2000/svg">
<rect width="50" height="50" rx="10" fill="#E51515"/>
<path fill-rule="evenodd" clip-rule="evenodd" d="M39.982 38H14.93C14.8619 37.9992 14.7946 37.985 14.732 37.9582C14.6694 37.9314 14.6127 37.8925 14.5651 37.8437C14.5176 37.7949 14.4801 37.7373 14.4548 37.674C14.4296 37.6107 14.4171 37.5431 14.418 37.475C14.418 37.185 14.647 36.95 14.93 36.95H39.982C40.529 36.95 40.974 36.494 40.974 35.934V23.853C40.974 23.292 40.529 22.836 39.982 22.836H37.435C37.2974 22.8342 37.1662 22.7779 37.0701 22.6795C36.9739 22.5811 36.9207 22.4486 36.922 22.311C36.922 22.021 37.152 21.786 37.435 21.786H39.982C41.095 21.786 42 22.713 42 23.853V35.934C42 37.073 41.095 38 39.982 38ZM34.79 19.113H13.635C12.951 19.113 12.395 19.683 12.395 20.384V20.524C12.3963 20.6616 12.3431 20.7941 12.2469 20.8925C12.1508 20.9909 12.0196 21.0472 11.882 21.049C11.7444 21.0472 11.6132 20.9909 11.5171 20.8925C11.4209 20.7941 11.3677 20.6616 11.369 20.524V20.384C11.369 19.104 12.386 18.063 13.635 18.063H34.79C35.474 18.063 36.03 17.493 36.03 16.793C36.03 16.092 35.474 15.523 34.79 15.523H13.284C12.035 15.523 11.018 14.481 11.019 13.202V11.525C11.019 11.235 11.248 11 11.531 11C11.815 11 12.044 11.235 12.044 11.525V13.202C12.044 13.902 12.6 14.473 13.284 14.473H34.79C36.04 14.473 37.056 15.513 37.056 16.793C37.056 18.072 36.04 19.113 34.79 19.113ZM39.071 24.26C39.355 24.26 39.584 24.495 39.584 24.785V35.001C39.584 35.291 39.355 35.526 39.071 35.526H33.855C33.7174 35.5242 33.5862 35.4679 33.4901 35.3695C33.3939 35.2711 33.3407 35.1386 33.342 35.001V24.785C33.342 24.495 33.572 24.26 33.855 24.26H39.071ZM36.939 34.476H38.559V32.121H36.939V34.476ZM36.939 31.07H38.559V28.716H36.939V31.07ZM36.939 27.665H38.559V25.31H36.939V27.665ZM34.368 34.476H35.914V32.121H34.368V34.476ZM34.368 31.07H35.914V28.716H34.368V31.07ZM34.368 27.665H35.914V25.31H34.368V27.665ZM9.416 35.001V24.785C9.416 24.495 9.645 24.26 9.928 24.26H31.084C31.367 24.26 31.596 24.495 31.596 24.785V35.001C31.596 35.291 31.367 35.526 31.084 35.526H9.928C9.85989 35.5252 9.7926 35.511 9.72999 35.4842C9.66737 35.4574 9.61067 35.4185 9.56311 35.3697C9.51555 35.3209 9.47808 35.2633 9.45284 35.2C9.42759 35.1367 9.41507 35.0691 9.416 35.001ZM16.512 25.31H13.914V27.665H16.512V25.31ZM12.511 28.716V31.07H14.876V28.716H12.511ZM15.901 28.716V31.07H18.499V28.716H15.901ZM20.135 25.31H17.537V27.665H20.135V25.31ZM19.524 28.716V31.07H22.122V28.716H19.524ZM23.758 25.31H21.16V27.665H23.758V25.31ZM23.147 28.716V31.07H25.745V28.716H23.147ZM27.381 25.31H24.784V27.665H27.381V25.31ZM30.571 25.31H28.407V27.665H30.571V25.31ZM30.571 28.716H26.771V31.07H30.571V28.716ZM28.407 34.476H30.571V32.121H28.407V34.476ZM24.784 34.476H27.381V32.121H24.784V34.476ZM17.537 34.476H23.758V32.121H17.537V34.476ZM13.914 34.476H16.512V32.121H13.914V34.476ZM10.441 34.476H12.889V32.121H10.441V34.476ZM10.441 31.07H11.486V28.716H10.441V31.07ZM10.441 27.665H12.889V25.31H10.441V27.665ZM35.928 22.311C35.9293 22.4486 35.8761 22.5811 35.7799 22.6795C35.6838 22.7779 35.5526 22.8342 35.415 22.836H9.017C8.47 22.836 8.025 23.292 8.025 23.853V35.934C8.025 36.494 8.47 36.95 9.017 36.95H12.864C13.147 36.95 13.376 37.185 13.376 37.475C13.376 37.765 13.147 38 12.864 38H9.017C7.905 38 7 37.073 7 35.934V23.853C7 22.713 7.905 21.786 9.017 21.786H35.415C35.5526 21.7878 35.6838 21.8441 35.7799 21.9425C35.8761 22.0409 35.9293 22.1734 35.928 22.311Z" fill="white"/>
</svg>
